<?xml version="1.0" encoding="UTF-8"?>
<svg width="48" height="48" viewBox="0 0 48 48" fill="none" xmlns="http://www.w3.org/2000/svg">
    <rect width="48" height="48" rx="24" fill="#1877F2"/>
    <path d="M33 24.0699C33 18.7186 28.8513 14.3999 23.5 14.3999C18.1487 14.3999 14 18.7186 14 24.0699C14 28.8699 17.3375 32.8161 21.8438 33.5999V26.9686H19.3984V24.0699H21.8438V21.8161C21.8438 19.3236 23.2 17.9686 25.4813 17.9686C26.5813 17.9686 27.7188 18.1936 27.7188 18.1936V20.7186H26.4438C25.1938 20.7186 24.8125 21.5186 24.8125 22.3436V24.0699H27.5938L27.1563 26.9686H24.8125V33.5999C29.3188 32.8161 33 28.8699 33 24.0699Z" fill="white"/>
</svg> 