<?xml version="1.0" encoding="UTF-8"?>
<svg width="48" height="48" viewBox="0 0 48 48" fill="none" xmlns="http://www.w3.org/2000/svg">
    <rect width="48" height="48" rx="24" fill="#00B900"/>
    <path fill-rule="evenodd" clip-rule="evenodd" d="M24 11C16.268 11 10 16.268 10 22.8182C10 28.5455 14.912 33.3636 21.4 34.4545C21.8 34.5455 22.4 34.8182 22.6 35.1818C22.8 35.5455 22.7 36.1818 22.7 36.1818C22.7 36.1818 22.5 37.2727 22.5 37.4545C22.4 37.8182 22.1 38.7273 24 38C29.9 35.2727 34 30.3636 34 22.8182C34 16.268 27.732 11 24 11ZM20.4 25.7273H18.2V20.7273C18.2 20.3636 17.9 20.0909 17.5 20.0909C17.1 20.0909 16.8 20.3636 16.8 20.7273V26.3636C16.8 26.7273 17.1 27 17.5 27H20.4C20.8 27 21.1 26.7273 21.1 26.3636C21.1 26 20.8 25.7273 20.4 25.7273ZM22.3 20.7273C22.3 20.3636 22.6 20.0909 23 20.0909C23.4 20.0909 23.7 20.3636 23.7 20.7273V26.3636C23.7 26.7273 23.4 27 23 27C22.6 27 22.3 26.7273 22.3 26.3636V20.7273ZM28.9 20.7273H26V22.3636H28.9C29.3 22.3636 29.6 22.6364 29.6 23C29.6 23.3636 29.3 23.6364 28.9 23.6364H26V25.7273H28.9C29.3 25.7273 29.6 26 29.6 26.3636C29.6 26.7273 29.3 27 28.9 27H25.3C24.9 27 24.6 26.7273 24.6 26.3636V20.7273C24.6 20.3636 24.9 20.0909 25.3 20.0909H28.9C29.3 20.0909 29.6 20.3636 29.6 20.7273C29.6 21.0909 29.3 21.3636 28.9 21.3636Z" fill="white"/>
</svg> 